<?xml version="1.0" encoding="UTF-8"?>
<svg xmlns="http://www.w3.org/2000/svg" xmlns:xlink="http://www.w3.org/1999/xlink" width="150px" height="150px" viewBox="0 0 250 250" version="1.1">
<g id="surface1">
<path style=" stroke:none;fill-rule:nonzero;fill:rgb(0%,41.568627%,23.137255%);fill-opacity:1;" d="M 173.199219 130.824219 L 173.074219 130.925781 L 173.074219 132.800781 L 173.199219 132.925781 L 175.074219 132.925781 L 175.199219 132.800781 L 175.199219 130.925781 L 175.074219 130.824219 L 173.199219 130.824219 "/>
<path style=" stroke:none;fill-rule:nonzero;fill:rgb(0%,41.568627%,23.137255%);fill-opacity:1;" d="M 173.449219 135.226562 L 173.25 135.273438 L 173.25 146.25 C 173.25 147.949219 172.324219 149.25 170.625 149.25 C 169.976562 149.25 168.726562 149.175781 168.125 148.25 L 168.023438 148.199219 L 167.699219 148.375 L 167.648438 148.5 C 168.300781 150 169.5 150.648438 170.699219 150.648438 C 172.800781 150.648438 175.101562 149.699219 175.101562 145.800781 L 175.101562 134.925781 L 175 134.800781 L 173.449219 135.226562 "/>
<path style=" stroke:none;fill-rule:nonzero;fill:rgb(0%,41.568627%,23.137255%);fill-opacity:1;" d="M 151.800781 132.925781 L 151.925781 132.800781 L 151.925781 130.925781 L 151.800781 130.824219 L 149.925781 130.824219 L 149.800781 130.925781 L 149.800781 132.800781 L 149.925781 132.925781 L 151.800781 132.925781 "/>
<path style=" stroke:none;fill-rule:nonzero;fill:rgb(0%,41.568627%,23.137255%);fill-opacity:1;" d="M 148.324219 132.925781 L 148.449219 132.800781 L 148.449219 130.925781 L 148.324219 130.824219 L 146.449219 130.824219 L 146.324219 130.925781 L 146.324219 132.800781 L 146.449219 132.925781 L 148.324219 132.925781 "/>
<path style=" stroke:none;fill-rule:nonzero;fill:rgb(0%,41.568627%,23.137255%);fill-opacity:1;" d="M 153.476562 138.425781 C 153.476562 135.898438 151.625 134.5 149.125 134.5 C 146.625 134.5 144.773438 135.875 144.773438 138.425781 L 144.773438 142.324219 C 144.773438 144.851562 146.625 146.25 149.125 146.25 C 151.625 146.25 153.476562 144.875 153.476562 142.324219 L 153.476562 138.425781 M 151.648438 141.949219 C 151.648438 143.699219 150.699219 144.625 149.125 144.625 C 147.5 144.625 146.601562 143.699219 146.601562 141.949219 L 146.601562 138.800781 C 146.601562 137.050781 147.5 136.148438 149.125 136.148438 C 150.726562 136.148438 151.648438 137.050781 151.648438 138.800781 Z M 151.648438 141.949219 "/>
<path style=" stroke:none;fill-rule:nonzero;fill:rgb(0%,41.568627%,23.137255%);fill-opacity:1;" d="M 165.5 128.824219 L 165.398438 128.851562 L 165.300781 128.949219 L 165.300781 146.25 C 166.976562 145.300781 167.125 143.324219 167.125 143.324219 L 167.125 128.523438 L 166.976562 128.425781 L 165.5 128.824219 "/>
<path style=" stroke:none;fill-rule:nonzero;fill:rgb(0%,41.568627%,23.137255%);fill-opacity:1;" d="M 159.199219 135.199219 L 159 135.25 L 159 146.25 C 159 147.949219 158.074219 149.273438 156.375 149.273438 C 155.726562 149.273438 154.449219 149.175781 153.875 148.25 L 153.75 148.199219 L 153.398438 148.375 L 153.351562 148.5 C 154 150 155.199219 150.648438 156.398438 150.648438 C 158.5 150.648438 160.800781 149.699219 160.800781 145.800781 L 160.800781 134.925781 L 160.699219 134.800781 L 159.199219 135.199219 "/>
<path style=" stroke:none;fill-rule:nonzero;fill:rgb(0%,41.568627%,23.137255%);fill-opacity:1;" d="M 187.425781 134.800781 L 185.925781 135.199219 C 185.925781 135.199219 184.648438 134.5 183.324219 134.5 C 181 134.5 178.851562 135.875 178.824219 138.425781 L 178.824219 142.273438 C 178.824219 144.898438 180.675781 146.25 182.675781 146.25 C 184.976562 146.25 185.648438 144.898438 185.824219 144.476562 L 185.699219 145.476562 L 185.699219 146.25 C 185.699219 147.949219 184.773438 149.25 183.074219 149.25 C 182.425781 149.25 181.148438 149.175781 180.574219 148.25 L 180.449219 148.199219 L 180.125 148.375 L 180.074219 148.5 C 180.726562 150 181.925781 150.648438 183.125 150.648438 C 185.226562 150.648438 187.523438 149.699219 187.523438 145.800781 L 187.523438 134.925781 L 187.425781 134.800781 M 185.726562 144.101562 C 185.398438 144.273438 184.949219 144.625 183.449219 144.625 C 182.101562 144.625 180.648438 143.925781 180.648438 141.976562 L 180.648438 138.824219 C 180.648438 137.074219 181.976562 136.148438 183.375 136.148438 C 184.898438 136.148438 185.699219 136.976562 185.699219 138.550781 L 185.699219 144.101562 Z M 185.726562 144.101562 "/>
<path style=" stroke:none;fill-rule:nonzero;fill:rgb(0%,41.568627%,23.137255%);fill-opacity:1;" d="M 136.023438 128.824219 L 135.925781 128.851562 L 135.824219 128.949219 L 135.824219 146.25 C 137.5 145.300781 137.648438 143.324219 137.648438 143.324219 L 137.648438 128.523438 L 137.5 128.425781 L 136.023438 128.824219 "/>
<path style=" stroke:none;fill-rule:nonzero;fill:rgb(0%,41.568627%,23.137255%);fill-opacity:1;" d="M 132.25 128.523438 L 132.148438 128.425781 L 130.648438 128.824219 L 130.550781 128.851562 L 130.449219 128.949219 L 130.449219 143.75 L 130.648438 144.425781 L 118.125 144.425781 C 117.800781 144.226562 117.523438 143.875 117.523438 143.523438 L 117.523438 138.800781 C 117.523438 137.050781 118.5 136.125 119.898438 136.125 C 120.625 136.125 121.398438 136.125 121.976562 136.125 C 123.375 136.125 124.300781 136.601562 124.550781 136.75 L 124.675781 136.675781 L 124.75 136.375 C 124.75 136.375 124.25 134.476562 121.75 134.476562 L 119.875 134.476562 C 117.550781 134.476562 115.75 135.851562 115.75 138.398438 L 115.75 142.425781 C 115.75 143.125 115.949219 143.976562 116.601562 144.398438 L 109.25 144.398438 L 109.25 141.351562 C 109.25 138.800781 107.398438 137.425781 104.898438 137.425781 C 102.398438 137.425781 100.550781 138.800781 100.550781 141.351562 L 100.550781 144.398438 L 93.449219 144.398438 L 93.449219 128.5 L 93.324219 128.375 L 91.824219 128.800781 L 91.726562 128.824219 L 91.625 128.925781 L 91.625 145.324219 C 91.625 147.050781 91.101562 148.949219 88.023438 148.949219 C 84.101562 148.949219 84.351562 145.675781 84.351562 145.675781 C 84.351562 145.351562 84.351562 144.976562 84.449219 144.5 C 84.523438 144.074219 84.675781 143.625 84.925781 143.175781 L 84.875 143.023438 L 84.648438 142.925781 L 84.5 142.976562 C 83.300781 144.300781 83.324219 146.273438 83.324219 146.273438 C 83.324219 146.273438 82.976562 150.648438 88.074219 150.648438 C 93.398438 150.648438 93.398438 146.25 93.398438 146.25 L 100.824219 146.25 C 101.449219 147.75 102.976562 148.550781 104.875 148.550781 C 106.773438 148.550781 108.300781 147.75 108.925781 146.25 L 131.148438 146.25 L 132.675781 145.898438 L 132.800781 145.773438 L 132.226562 143.773438 L 132.25 128.523438 M 107.449219 144.25 C 107.449219 146 106.5 146.925781 104.898438 146.925781 C 103.273438 146.925781 102.375 146 102.375 144.25 L 102.375 141.75 C 102.375 140 103.273438 139.101562 104.898438 139.101562 C 106.5 139.101562 107.449219 140 107.449219 141.75 Z M 107.449219 144.25 "/>
<path style=" stroke:none;fill-rule:nonzero;fill:rgb(54.117647%,42.745098%,26.27451%);fill-opacity:1;" d="M 98.476562 203.023438 L 98.398438 203.101562 L 98.398438 204.199219 L 98.476562 204.273438 L 99.574219 204.273438 L 99.625 204.199219 L 99.625 203.101562 L 99.574219 203.023438 L 98.476562 203.023438 "/>
<path style=" stroke:none;fill-rule:nonzero;fill:rgb(54.117647%,42.745098%,26.27451%);fill-opacity:1;" d="M 32.425781 203.023438 L 32.351562 203.101562 L 32.351562 204.199219 L 32.425781 204.273438 L 33.523438 204.273438 L 33.601562 204.199219 L 33.601562 203.101562 L 33.523438 203.023438 L 32.425781 203.023438 "/>
<path style=" stroke:none;fill-rule:nonzero;fill:rgb(54.117647%,42.745098%,26.27451%);fill-opacity:1;" d="M 96.449219 203.023438 L 96.375 203.101562 L 96.375 204.199219 L 96.449219 204.273438 L 97.550781 204.273438 L 97.601562 204.199219 L 97.601562 203.101562 L 97.550781 203.023438 L 96.449219 203.023438 "/>
<path style=" stroke:none;fill-rule:nonzero;fill:rgb(54.117647%,42.745098%,26.27451%);fill-opacity:1;" d="M 34.449219 203.023438 L 34.375 203.101562 L 34.375 204.199219 L 34.449219 204.273438 L 35.550781 204.273438 L 35.601562 204.199219 L 35.601562 203.101562 L 35.550781 203.023438 L 34.449219 203.023438 "/>
<path style=" stroke:none;fill-rule:nonzero;fill:rgb(54.117647%,42.745098%,26.27451%);fill-opacity:1;" d="M 106.273438 203.023438 L 106.226562 203.101562 L 106.226562 204.199219 L 106.273438 204.273438 L 107.375 204.273438 L 107.449219 204.199219 L 107.449219 203.101562 L 107.375 203.023438 L 106.273438 203.023438 "/>
<path style=" stroke:none;fill-rule:nonzero;fill:rgb(54.117647%,42.745098%,26.27451%);fill-opacity:1;" d="M 128.949219 191.300781 L 128.875 191.25 L 128 191.476562 L 127.949219 191.5 L 127.898438 191.550781 L 127.898438 200.175781 L 128.023438 200.574219 L 120.25 200.574219 C 120.074219 200.449219 119.898438 200.25 119.898438 200.050781 L 119.898438 197.300781 C 119.898438 196.273438 120.476562 195.75 121.300781 195.75 L 122.5 195.75 C 123.324219 195.75 123.851562 196.023438 124 196.101562 L 124.074219 196.074219 L 124.125 195.898438 C 124.125 195.898438 123.851562 194.800781 122.375 194.800781 L 121.273438 194.800781 C 119.925781 194.800781 118.875 195.601562 118.875 197.074219 L 118.875 199.425781 C 118.875 199.851562 119 200.324219 119.375 200.574219 L 113.851562 200.574219 L 113.851562 195.023438 L 113.773438 194.976562 L 112.898438 195.199219 L 112.773438 195.226562 L 112.773438 201.625 C 112.773438 202.625 112.25 203.375 111.25 203.375 C 110.875 203.375 110.125 203.324219 109.800781 202.773438 L 109.726562 202.75 L 109.523438 202.851562 L 109.5 202.925781 C 109.898438 203.800781 110.851562 204.175781 111.550781 204.175781 C 112.726562 204.175781 113.75 203.648438 113.851562 201.601562 L 128.375 201.601562 L 129.273438 201.375 L 129.351562 201.300781 L 129.023438 200.148438 L 128.949219 191.300781 "/>
<path style=" stroke:none;fill-rule:nonzero;fill:rgb(54.117647%,42.745098%,26.27451%);fill-opacity:1;" d="M 131.125 191.476562 L 131.074219 191.5 L 131 191.550781 L 131 201.625 C 131.976562 201.074219 132.050781 199.925781 132.050781 199.925781 L 132.050781 191.300781 L 132 191.25 L 131.125 191.476562 "/>
<path style=" stroke:none;fill-rule:nonzero;fill:rgb(54.117647%,42.745098%,26.27451%);fill-opacity:1;" d="M 108.851562 195.023438 L 108.773438 194.976562 L 107.898438 195.199219 L 107.851562 195.226562 L 107.773438 195.300781 L 107.773438 200.199219 L 107.898438 200.601562 L 102.476562 200.601562 C 101.699219 200.601562 101.050781 200.300781 101.050781 199.175781 L 101.050781 195.050781 L 100.976562 195 L 100.101562 195.226562 L 100.050781 195.25 L 99.976562 195.324219 L 99.976562 199.199219 C 99.976562 200.324219 99.324219 200.625 98.550781 200.625 L 94.601562 200.625 C 93.824219 200.625 93.175781 200.324219 93.175781 199.199219 L 93.175781 194.574219 L 93.101562 194.5 L 92.226562 194.726562 C 92.226562 194.726562 91.476562 194.324219 90.699219 194.324219 C 89.351562 194.324219 88.101562 195.125 88.074219 196.601562 L 88.074219 198.851562 C 88.074219 200.375 89.148438 201.148438 90.324219 201.148438 C 91.648438 201.148438 92.074219 200.351562 92.175781 200.125 C 92.425781 201.148438 93.175781 201.675781 94.101562 201.675781 L 99 201.675781 C 99.601562 201.675781 100.125 201.449219 100.5 201.023438 C 100.851562 201.449219 101.398438 201.675781 102 201.675781 L 108.199219 201.675781 L 109.101562 201.449219 L 109.175781 201.375 L 108.851562 200.226562 L 108.851562 195.023438 M 92.125 199.851562 C 91.925781 199.949219 91.675781 200.148438 90.800781 200.148438 C 90.023438 200.148438 89.175781 199.75 89.175781 198.601562 L 89.175781 196.773438 C 89.175781 195.75 89.949219 195.226562 90.773438 195.226562 C 91.648438 195.226562 92.125 195.699219 92.125 196.625 Z M 92.125 199.851562 "/>
<path style=" stroke:none;fill-rule:nonzero;fill:rgb(54.117647%,42.745098%,26.27451%);fill-opacity:1;" d="M 92.601562 193.074219 L 92.675781 193 L 92.675781 191.925781 L 92.601562 191.851562 L 91.5 191.851562 L 91.449219 191.925781 L 91.449219 193 L 91.5 193.074219 L 92.601562 193.074219 "/>
<path style=" stroke:none;fill-rule:nonzero;fill:rgb(54.117647%,42.745098%,26.27451%);fill-opacity:1;" d="M 90.574219 193.074219 L 90.648438 193 L 90.648438 191.925781 L 90.574219 191.851562 L 89.476562 191.851562 L 89.425781 191.925781 L 89.425781 193 L 89.476562 193.074219 L 90.574219 193.074219 "/>
<path style=" stroke:none;fill-rule:nonzero;fill:rgb(54.117647%,42.745098%,26.27451%);fill-opacity:1;" d="M 27.398438 193.074219 L 27.476562 193 L 27.476562 191.925781 L 27.398438 191.851562 L 26.300781 191.851562 L 26.25 191.925781 L 26.25 193 L 26.300781 193.074219 L 27.398438 193.074219 "/>
<path style=" stroke:none;fill-rule:nonzero;fill:rgb(54.117647%,42.745098%,26.27451%);fill-opacity:1;" d="M 29.425781 193.074219 L 29.5 193 L 29.5 191.925781 L 29.425781 191.851562 L 28.324219 191.851562 L 28.273438 191.925781 L 28.273438 193 L 28.324219 193.074219 L 29.425781 193.074219 "/>
<path style=" stroke:none;fill-rule:nonzero;fill:rgb(54.117647%,42.745098%,26.27451%);fill-opacity:1;" d="M 80.175781 191.300781 L 80.101562 191.25 L 79.226562 191.476562 L 79.175781 191.5 L 79.101562 191.550781 L 79.101562 200.175781 L 79.199219 200.574219 L 76.351562 200.574219 C 75.625 200.574219 74.898438 200.425781 74.601562 200.324219 C 74.699219 200.050781 74.75 199.726562 74.75 199.351562 L 74.75 195.800781 L 74.726562 195.800781 L 74.625 195.726562 L 73.773438 195.949219 L 73.726562 195.976562 L 73.699219 196 L 73.699219 199.125 C 73.699219 200.25 73.050781 200.648438 72.300781 200.648438 C 72 200.648438 71.226562 200.449219 70.925781 200.351562 C 71 200.074219 71.074219 199.773438 71.074219 199.425781 L 71.074219 195.75 L 71 195.675781 L 70.148438 195.898438 L 70.101562 195.925781 L 70.050781 195.976562 L 70.050781 199.074219 C 70.050781 200.199219 69.523438 200.625 68.773438 200.625 C 68.5 200.625 67.675781 200.398438 67.425781 200.324219 L 67.425781 195.75 L 67.324219 195.675781 L 66.476562 195.898438 L 66.425781 195.925781 L 66.375 195.976562 L 66.375 200.023438 L 66.25 200.5 L 58.75 200.5 C 58.550781 200.375 58.398438 200.175781 58.398438 199.976562 L 58.398438 197.226562 C 58.398438 196.199219 58.976562 195.675781 59.800781 195.675781 L 61 195.675781 C 61.824219 195.675781 62.351562 195.949219 62.5 196.023438 L 62.574219 196 L 62.601562 195.824219 C 62.601562 195.824219 62.300781 194.726562 60.851562 194.726562 L 59.75 194.726562 C 58.375 194.726562 57.351562 195.523438 57.351562 197 L 57.351562 199.351562 C 57.351562 199.75 57.476562 200.25 57.851562 200.5 L 53.476562 200.5 C 53 200.5 52.824219 200.425781 52.699219 200.300781 L 52.699219 194.949219 L 52.648438 194.898438 L 51.773438 195.125 C 51.773438 195.125 51.023438 194.699219 50.25 194.699219 C 48.898438 194.699219 47.648438 195.5 47.625 196.976562 L 47.625 199.226562 C 47.625 200.75 48.726562 201.550781 49.875 201.550781 C 51.199219 201.550781 51.601562 200.75 51.699219 200.523438 L 51.625 201.101562 L 51.625 201.550781 C 51.625 202.550781 51.101562 203.300781 50.074219 203.300781 C 49.699219 203.300781 48.949219 203.25 48.625 202.699219 L 48.550781 202.675781 L 48.351562 202.773438 L 48.324219 202.851562 C 48.699219 203.726562 49.675781 204.101562 50.375 204.101562 C 51.574219 204.101562 52.625 203.550781 52.675781 201.375 C 52.925781 201.476562 53.25 201.550781 53.601562 201.550781 L 66.851562 201.550781 L 66.925781 201.5 L 67.300781 200.476562 C 67.351562 200.648438 67.726562 201.550781 69.148438 201.550781 C 69.898438 201.550781 70.476562 201.226562 70.773438 200.574219 C 70.925781 200.851562 71.425781 201.550781 72.699219 201.550781 C 73.449219 201.550781 74.074219 201.199219 74.425781 200.574219 C 74.625 200.925781 75.148438 201.550781 76.25 201.550781 L 79.5 201.550781 L 80.398438 201.324219 L 80.476562 201.25 L 80.148438 200.101562 L 80.148438 191.300781 M 51.648438 200.375 C 51.449219 200.476562 51.199219 200.675781 50.324219 200.675781 C 49.550781 200.675781 48.699219 200.25 48.699219 199.125 L 48.699219 197.273438 C 48.699219 196.25 49.476562 195.726562 50.300781 195.726562 C 51.175781 195.726562 51.648438 196.199219 51.648438 197.125 Z M 51.648438 200.375 "/>
<path style=" stroke:none;fill-rule:nonzero;fill:rgb(54.117647%,42.745098%,26.27451%);fill-opacity:1;" d="M 37.125 195.023438 L 37.050781 194.976562 L 36.175781 195.199219 L 36.125 195.226562 L 36.050781 195.300781 L 36.050781 200.199219 L 36.148438 200.601562 L 31.398438 200.601562 C 30.625 200.601562 29.976562 200.300781 29.976562 199.175781 L 29.976562 194.550781 L 29.898438 194.476562 L 29.023438 194.699219 C 29.023438 194.699219 28.273438 194.300781 27.5 194.300781 C 26.148438 194.300781 24.898438 195.101562 24.898438 196.574219 L 24.898438 198.824219 C 24.898438 200.351562 25.976562 201.125 27.148438 201.125 C 28.476562 201.125 28.898438 200.324219 29.023438 200.101562 C 29.273438 201.125 30.023438 201.648438 30.949219 201.648438 L 36.449219 201.648438 L 37.351562 201.425781 L 37.398438 201.351562 L 37.074219 200.199219 L 37.125 195.023438 M 28.949219 197.074219 L 28.949219 199.875 C 28.773438 199.976562 28.5 200.175781 27.625 200.175781 C 26.851562 200.175781 26 199.773438 26 198.625 L 26 196.773438 C 26 195.75 26.773438 195.226562 27.601562 195.226562 C 28.476562 195.226562 28.949219 195.699219 28.949219 196.625 Z M 28.949219 197.074219 "/>
<path style=" stroke:none;fill-rule:nonzero;fill:rgb(54.117647%,42.745098%,26.27451%);fill-opacity:1;" d="M 45.273438 197.074219 C 45.273438 195.601562 44.226562 194.800781 42.875 194.800781 L 41.773438 194.800781 C 40.300781 194.800781 40.023438 195.898438 40.023438 195.898438 L 40.074219 196.074219 L 40.148438 196.101562 C 40.300781 196 40.851562 195.75 41.648438 195.75 L 42.851562 195.75 C 43.675781 195.75 44.226562 196.300781 44.226562 197.300781 L 44.226562 200.175781 L 44.351562 200.574219 L 40.875 200.574219 C 40 200.574219 39.148438 200.375 38.976562 200.273438 L 38.875 200.476562 C 38.976562 200.699219 39.449219 201.601562 40.75 201.625 L 44.648438 201.625 L 45.550781 201.398438 L 45.625 201.324219 L 45.300781 200.175781 L 45.300781 197.074219 "/>
<path style=" stroke:none;fill-rule:nonzero;fill:rgb(54.117647%,42.745098%,26.27451%);fill-opacity:1;" d="M 82.351562 191.476562 L 82.300781 191.5 L 82.226562 191.550781 L 82.226562 201.625 C 83.199219 201.074219 83.273438 199.925781 83.273438 199.925781 L 83.273438 191.300781 L 83.175781 191.25 L 82.351562 191.476562 "/>
<path style=" stroke:none;fill-rule:nonzero;fill:rgb(54.117647%,42.745098%,26.27451%);fill-opacity:1;" d="M 139.375 193.074219 L 139.425781 193 L 139.425781 191.925781 L 139.375 191.851562 L 138.273438 191.851562 L 138.199219 191.925781 L 138.199219 193 L 138.273438 193.074219 L 139.375 193.074219 "/>
<path style=" stroke:none;fill-rule:nonzero;fill:rgb(54.117647%,42.745098%,26.27451%);fill-opacity:1;" d="M 141.398438 193.074219 L 141.476562 193 L 141.476562 191.925781 L 141.398438 191.851562 L 140.300781 191.851562 L 140.226562 191.925781 L 140.226562 193 L 140.300781 193.074219 L 141.398438 193.074219 "/>
<path style=" stroke:none;fill-rule:nonzero;fill:rgb(54.117647%,42.745098%,26.27451%);fill-opacity:1;" d="M 187.425781 191.25 L 186.574219 191.476562 L 186.523438 191.5 L 186.449219 191.550781 L 186.449219 201.625 C 187.425781 201.074219 187.5 199.925781 187.5 199.925781 L 187.5 191.300781 L 187.425781 191.25 "/>
<path style=" stroke:none;fill-rule:nonzero;fill:rgb(54.117647%,42.745098%,26.27451%);fill-opacity:1;" d="M 184.375 191.300781 L 184.300781 191.25 L 183.425781 191.476562 L 183.375 191.5 L 183.324219 191.550781 L 183.324219 200.175781 L 183.425781 200.574219 L 179.375 200.574219 L 179.375 198.800781 C 179.375 197.324219 178.300781 196.5 176.851562 196.5 C 175.398438 196.5 174.324219 197.300781 174.324219 198.800781 L 174.324219 200.574219 L 170.300781 200.574219 L 170.300781 198.800781 C 170.300781 197.324219 169.226562 196.5 167.773438 196.5 C 166.324219 196.5 165.25 197.300781 165.25 198.800781 L 165.25 200.574219 L 162.476562 200.574219 C 161.699219 200.574219 161.050781 200.273438 161.050781 199.125 L 161.050781 191.300781 L 161 191.25 L 160.125 191.476562 L 160.074219 191.5 L 160 191.550781 L 160 199.125 C 160 200.25 159.351562 200.574219 158.574219 200.574219 L 154.824219 200.574219 C 155.199219 200.324219 155.324219 199.851562 155.324219 199.425781 L 155.324219 197.949219 C 155.324219 196.476562 154.273438 195.675781 152.925781 195.675781 L 148.023438 195.675781 C 147.175781 195.675781 146.800781 195.273438 146.800781 194.375 L 146.800781 193.800781 C 146.824219 192.949219 147.199219 192.574219 148.023438 192.574219 L 148.75 192.574219 C 149.574219 192.574219 150.101562 192.851562 150.25 192.925781 L 150.324219 192.898438 L 150.351562 192.726562 C 150.351562 192.726562 150.050781 191.625 148.601562 191.625 L 148.023438 191.625 C 146.726562 191.625 145.75 192.351562 145.75 193.675781 L 145.75 194.574219 C 145.75 195.898438 146.726562 196.625 148.023438 196.625 L 152.875 196.625 C 153.699219 196.625 154.25 197.175781 154.25 198.175781 L 154.25 200.050781 C 154.25 200.25 154.074219 200.449219 153.898438 200.574219 L 143.425781 200.574219 C 142.648438 200.574219 142 200.273438 142 199.125 L 142 194.523438 L 141.925781 194.449219 L 141.050781 194.699219 C 141.050781 194.699219 140.324219 194.300781 139.523438 194.300781 C 138.175781 194.300781 136.925781 195.101562 136.898438 196.574219 L 136.898438 198.824219 C 136.898438 200.351562 138 201.125 139.148438 201.125 C 140.476562 201.125 140.898438 200.324219 141 200.101562 C 141.25 201.101562 142 201.625 142.925781 201.625 L 158.949219 201.625 C 159.574219 201.625 160.101562 201.398438 160.449219 200.976562 C 160.824219 201.398438 161.351562 201.625 161.949219 201.625 L 165.351562 201.625 C 165.699219 202.5 166.601562 202.976562 167.699219 202.976562 C 168.800781 202.976562 169.699219 202.5 170.050781 201.625 L 174.5 201.625 C 174.851562 202.5 175.75 202.976562 176.851562 202.976562 C 177.949219 202.976562 178.851562 202.5 179.199219 201.625 L 183.75 201.625 L 184.648438 201.425781 L 184.726562 201.351562 L 184.398438 200.199219 L 184.398438 191.300781 M 140.925781 197.074219 L 140.925781 199.875 C 140.75 199.976562 140.476562 200.175781 139.601562 200.175781 C 138.824219 200.175781 137.976562 199.773438 137.976562 198.625 L 137.976562 196.773438 C 137.976562 195.75 138.75 195.226562 139.574219 195.226562 C 140.449219 195.226562 140.925781 195.699219 140.925781 196.625 Z M 169.226562 200.476562 C 169.226562 201.5 168.675781 202.023438 167.75 202.023438 C 166.800781 202.023438 166.273438 201.476562 166.273438 200.476562 L 166.273438 199.023438 C 166.273438 198 166.800781 197.476562 167.75 197.476562 C 168.675781 197.476562 169.226562 198 169.226562 199.023438 Z M 178.324219 200.476562 C 178.324219 201.5 177.773438 202.023438 176.851562 202.023438 C 175.898438 202.023438 175.375 201.476562 175.375 200.476562 L 175.375 199.023438 C 175.375 198 175.898438 197.476562 176.851562 197.476562 C 177.773438 197.476562 178.324219 198 178.324219 199.023438 Z M 178.324219 200.476562 "/>
<path style=" stroke:none;fill-rule:nonzero;fill:rgb(0%,41.568627%,23.137255%);fill-opacity:1;" d="M 187.425781 166.574219 L 185.925781 166.976562 C 185.925781 166.976562 184.648438 166.273438 183.324219 166.273438 C 181 166.273438 178.851562 167.648438 178.824219 170.199219 L 178.824219 174.050781 C 178.824219 176.675781 180.675781 178.023438 182.675781 178.023438 C 184.976562 178.023438 185.648438 176.675781 185.824219 176.25 L 185.699219 177.25 L 185.699219 178.023438 C 185.699219 179.726562 184.773438 181.023438 183.074219 181.023438 C 182.425781 181.023438 181.148438 180.949219 180.574219 180.023438 L 180.449219 179.976562 L 180.125 180.148438 L 180.074219 180.273438 C 180.726562 181.773438 181.925781 182.425781 183.125 182.425781 C 185.226562 182.425781 187.523438 181.476562 187.523438 177.574219 L 187.523438 166.699219 L 187.425781 166.574219 M 185.726562 175.875 C 185.398438 176.050781 184.949219 176.398438 183.449219 176.398438 C 182.101562 176.398438 180.648438 175.699219 180.648438 173.75 L 180.648438 170.601562 C 180.648438 168.851562 181.976562 167.925781 183.375 167.925781 C 184.898438 167.925781 185.699219 168.75 185.699219 170.324219 L 185.699219 175.875 Z M 185.726562 175.875 "/>
<path style=" stroke:none;fill-rule:nonzero;fill:rgb(0%,41.568627%,23.137255%);fill-opacity:1;" d="M 31.625 163.5 L 31.75 163.398438 L 31.75 161.523438 L 31.625 161.425781 L 29.773438 161.425781 L 29.648438 161.523438 L 29.648438 163.398438 L 29.773438 163.5 L 31.625 163.5 "/>
<path style=" stroke:none;fill-rule:nonzero;fill:rgb(0%,41.568627%,23.137255%);fill-opacity:1;" d="M 28.425781 163.5 L 28.523438 163.398438 L 28.523438 161.523438 L 28.425781 161.425781 L 26.550781 161.425781 L 26.449219 161.523438 L 26.449219 163.398438 L 26.550781 163.5 L 28.425781 163.5 "/>
<path style=" stroke:none;fill-rule:nonzero;fill:rgb(0%,41.568627%,23.137255%);fill-opacity:1;" d="M 53.773438 175.175781 C 53.523438 175.25 53.273438 175.324219 53 175.375 C 52.75 175.449219 52.550781 175.476562 52.398438 175.476562 L 49.824219 175.476562 C 49.023438 175.476562 48.398438 175.25 47.949219 174.800781 C 47.523438 174.351562 47.300781 173.699219 47.300781 172.824219 L 47.300781 169.976562 C 47.300781 169.101562 47.523438 168.449219 47.949219 168 C 48.375 167.550781 49 167.324219 49.824219 167.324219 C 50.601562 167.324219 51.199219 167.550781 51.648438 167.976562 C 52.074219 168.398438 52.324219 169.023438 52.351562 169.851562 L 52.449219 169.976562 L 54.050781 169.976562 L 54.148438 169.851562 L 54.148438 169.601562 C 54.148438 168.976562 54.050781 168.398438 53.824219 167.925781 C 53.601562 167.449219 53.300781 167.023438 52.925781 166.699219 C 52.550781 166.375 52.074219 166.125 51.550781 165.949219 C 51.023438 165.773438 50.449219 165.699219 49.824219 165.699219 C 49.199219 165.699219 48.625 165.773438 48.101562 165.949219 C 47.574219 166.125 47.101562 166.375 46.726562 166.699219 C 46.351562 167.023438 46.050781 167.425781 45.824219 167.925781 C 45.601562 168.398438 45.5 168.976562 45.5 169.601562 L 45.5 173.199219 C 45.5 174.101562 45.726562 174.851562 46.175781 175.476562 L 40.273438 175.476562 L 40.273438 165.976562 L 40.175781 165.875 L 38.601562 166.101562 L 38.5 166.25 L 38.5 175.5 L 33.226562 175.5 L 33.226562 166.148438 L 33.125 166.023438 L 31.648438 166.425781 C 31.398438 166.300781 31.125 166.199219 30.875 166.101562 C 30.625 166 30.351562 165.925781 30.050781 165.851562 C 29.726562 165.773438 29.398438 165.75 29.074219 165.75 C 28.5 165.75 27.949219 165.824219 27.449219 166 C 26.949219 166.175781 26.523438 166.425781 26.148438 166.75 C 25.773438 167.074219 25.5 167.476562 25.273438 167.976562 C 25.074219 168.449219 24.949219 169.023438 24.949219 169.648438 L 24.949219 173.476562 C 24.949219 174.773438 25.273438 175.75 25.949219 176.425781 C 26.601562 177.074219 27.425781 177.425781 28.425781 177.425781 C 29 177.425781 29.476562 177.351562 29.851562 177.226562 C 30.226562 177.074219 30.550781 176.898438 30.773438 176.726562 C 31 176.523438 31.175781 176.324219 31.300781 176.148438 C 31.425781 175.949219 31.5 175.800781 31.550781 175.699219 L 31.449219 176.898438 L 31.449219 177.398438 L 51.75 177.398438 C 52.25 177.398438 52.675781 177.351562 53.023438 177.226562 C 53.375 177.101562 53.675781 176.949219 53.925781 176.773438 C 54.175781 176.601562 54.351562 176.398438 54.476562 176.175781 C 54.601562 175.949219 54.726562 175.550781 54.800781 175.324219 L 54.699219 174.949219 C 54.375 174.976562 54.050781 175.074219 53.773438 175.175781 M 31.425781 175.25 C 31.324219 175.273438 31.175781 175.324219 30.976562 175.375 C 30.773438 175.425781 30.550781 175.5 30.324219 175.550781 C 30.101562 175.601562 29.875 175.648438 29.675781 175.699219 C 29.476562 175.75 29.300781 175.773438 29.175781 175.773438 C 28.851562 175.773438 28.523438 175.726562 28.25 175.648438 C 27.949219 175.550781 27.699219 175.398438 27.476562 175.199219 C 27.25 175 27.074219 174.726562 26.949219 174.375 C 26.824219 174.023438 26.75 173.625 26.75 173.148438 L 26.75 170 C 26.75 169.125 26.976562 168.476562 27.398438 168.023438 C 27.824219 167.574219 28.398438 167.351562 29.101562 167.351562 C 30.648438 167.351562 31.425781 168.148438 31.425781 169.726562 Z M 31.425781 175.25 "/>
<path style=" stroke:none;fill-rule:nonzero;fill:rgb(0%,41.568627%,23.137255%);fill-opacity:1;" d="M 77.351562 163.476562 L 77.476562 163.375 L 77.476562 161.5 L 77.351562 161.398438 L 75.5 161.398438 L 75.375 161.5 L 75.375 163.375 L 75.5 163.476562 L 77.351562 163.476562 "/>
<path style=" stroke:none;fill-rule:nonzero;fill:rgb(0%,41.568627%,23.137255%);fill-opacity:1;" d="M 80.574219 163.476562 L 80.675781 163.375 L 80.675781 161.5 L 80.574219 161.398438 L 78.699219 161.398438 L 78.601562 161.5 L 78.601562 163.375 L 78.699219 163.476562 L 80.574219 163.476562 "/>
<path style=" stroke:none;fill-rule:nonzero;fill:rgb(0%,41.568627%,23.137255%);fill-opacity:1;" d="M 87.273438 180.175781 L 87.175781 180.300781 L 87.175781 182.148438 L 87.273438 182.273438 L 89.148438 182.273438 L 89.25 182.148438 L 89.25 180.300781 L 89.148438 180.175781 L 87.273438 180.175781 "/>
<path style=" stroke:none;fill-rule:nonzero;fill:rgb(0%,41.568627%,23.137255%);fill-opacity:1;" d="M 93.074219 174.324219 L 93.074219 169.648438 C 93.074219 169.023438 92.976562 168.449219 92.75 167.976562 C 92.523438 167.5 92.226562 167.074219 91.851562 166.75 C 91.476562 166.425781 91 166.175781 90.476562 166 C 89.949219 165.824219 89.375 165.75 88.75 165.75 L 87.101562 165.75 C 86.601562 165.75 86.148438 165.800781 85.800781 165.925781 C 85.449219 166.050781 85.125 166.199219 84.898438 166.375 C 84.648438 166.550781 84.449219 166.75 84.300781 166.976562 C 84.148438 167.199219 84.050781 167.398438 83.976562 167.625 L 84.074219 168 C 84.398438 167.875 84.699219 167.773438 85 167.675781 C 85.25 167.601562 85.5 167.523438 85.75 167.449219 C 86 167.375 86.199219 167.351562 86.375 167.351562 L 88.773438 167.351562 C 89.574219 167.351562 90.199219 167.574219 90.648438 168 C 91.074219 168.449219 91.300781 169.101562 91.300781 169.976562 L 91.300781 175.398438 L 91.324219 175.5 L 78.949219 175.5 L 78.949219 166 L 78.851562 165.898438 L 77.273438 166.125 L 77.175781 166.25 L 77.175781 175.5 L 72.125 175.5 L 72.125 172.449219 C 72.125 169.898438 70.273438 168.523438 67.773438 168.523438 C 65.273438 168.523438 63.425781 169.898438 63.425781 172.449219 L 63.425781 175.5 L 60.574219 175.5 C 59.824219 175.5 59.449219 175.273438 59.023438 174.824219 C 58.574219 174.375 58.351562 173.726562 58.351562 172.851562 L 58.351562 159.574219 L 58.25 159.476562 L 56.675781 159.699219 L 56.574219 159.824219 L 56.574219 173.398438 C 56.574219 174.023438 56.675781 174.601562 56.898438 175.074219 C 57.125 175.550781 57.425781 175.976562 57.800781 176.273438 C 58.175781 176.601562 58.625 176.851562 59.175781 177.023438 C 59.699219 177.199219 60.023438 177.273438 60.648438 177.273438 L 63.75 177.273438 C 64.375 178.773438 65.898438 179.574219 67.800781 179.574219 C 69.699219 179.574219 71.226562 178.773438 71.851562 177.273438 L 92.25 177.273438 L 93.601562 177.074219 L 93.699219 176.949219 L 93.148438 174.976562 L 93.148438 174.324219 M 70.273438 175.324219 C 70.273438 177.074219 69.324219 178 67.726562 178 C 66.101562 178 65.199219 177.074219 65.199219 175.324219 L 65.199219 172.824219 C 65.199219 171.074219 66.101562 170.175781 67.726562 170.175781 C 69.324219 170.175781 70.273438 171.074219 70.273438 172.824219 Z M 70.273438 175.324219 "/>
<path style=" stroke:none;fill-rule:nonzero;fill:rgb(0%,41.568627%,23.137255%);fill-opacity:1;" d="M 104.851562 159.726562 L 104.726562 159.851562 L 104.726562 172.824219 C 104.726562 173.699219 104.5 174.351562 104.050781 174.800781 C 103.601562 175.25 103 175.476562 102.199219 175.476562 L 101.425781 175.476562 L 101.226562 174.773438 L 101.226562 159.574219 L 101.125 159.476562 L 99.550781 159.699219 L 99.449219 159.824219 L 99.449219 175.375 L 99.5 175.476562 L 97.773438 175.476562 C 97.601562 175.476562 97.398438 175.449219 97.148438 175.375 C 96.898438 175.300781 96.648438 175.226562 96.398438 175.175781 C 96.125 175.074219 95.800781 174.976562 95.476562 174.851562 L 95.375 175.226562 C 95.425781 175.425781 95.523438 175.851562 95.675781 176.050781 C 95.824219 176.25 96 176.449219 96.25 176.625 C 96.5 176.800781 96.800781 176.949219 97.148438 177.074219 C 97.5 177.199219 97.925781 177.273438 98.398438 177.273438 L 102.199219 177.273438 C 102.824219 177.273438 103.398438 177.199219 103.925781 177.023438 C 104.449219 176.851562 104.925781 176.601562 105.300781 176.273438 C 105.675781 175.949219 105.976562 175.550781 106.199219 175.074219 C 106.425781 174.601562 106.523438 174.023438 106.523438 173.398438 L 106.523438 159.574219 L 106.425781 159.476562 L 104.851562 159.726562 "/>
<path style=" stroke:none;fill-rule:nonzero;fill:rgb(0%,41.568627%,23.137255%);fill-opacity:1;" d="M 110.226562 159.726562 L 110.101562 159.851562 L 110.101562 177 L 110.199219 177.101562 L 111.800781 177.101562 L 111.898438 177 L 111.898438 159.574219 L 111.800781 159.5 L 110.226562 159.726562 "/>
<path style=" stroke:none;fill-rule:nonzero;fill:rgb(0%,41.568627%,23.137255%);fill-opacity:1;" d="M 122.5 163.5 L 122.601562 163.398438 L 122.601562 161.523438 L 122.5 161.425781 L 120.625 161.425781 L 120.523438 161.523438 L 120.523438 163.398438 L 120.625 163.5 L 122.5 163.5 "/>
<path style=" stroke:none;fill-rule:nonzero;fill:rgb(0%,41.568627%,23.137255%);fill-opacity:1;" d="M 125.726562 163.5 L 125.824219 163.398438 L 125.824219 161.523438 L 125.726562 161.425781 L 123.851562 161.425781 L 123.726562 161.523438 L 123.726562 163.398438 L 123.851562 163.5 L 125.726562 163.5 "/>
<path style=" stroke:none;fill-rule:nonzero;fill:rgb(0%,41.568627%,23.137255%);fill-opacity:1;" d="M 130.925781 180.175781 L 130.824219 180.300781 L 130.824219 182.148438 L 130.925781 182.273438 L 132.800781 182.273438 L 132.925781 182.148438 L 132.925781 180.300781 L 132.800781 180.175781 L 130.925781 180.175781 "/>
<path style=" stroke:none;fill-rule:nonzero;fill:rgb(0%,41.568627%,23.137255%);fill-opacity:1;" d="M 134.148438 180.175781 L 134.050781 180.300781 L 134.050781 182.148438 L 134.148438 182.273438 L 136.023438 182.273438 L 136.125 182.148438 L 136.125 180.300781 L 136.023438 180.175781 L 134.148438 180.175781 "/>
<path style=" stroke:none;fill-rule:nonzero;fill:rgb(0%,41.568627%,23.137255%);fill-opacity:1;" d="M 36.875 180.175781 L 36.75 180.300781 L 36.75 182.148438 L 36.875 182.273438 L 38.726562 182.273438 L 38.851562 182.148438 L 38.851562 180.300781 L 38.726562 180.175781 L 36.875 180.175781 "/>
<path style=" stroke:none;fill-rule:nonzero;fill:rgb(0%,41.568627%,23.137255%);fill-opacity:1;" d="M 40.074219 180.175781 L 39.976562 180.300781 L 39.976562 182.148438 L 40.074219 182.273438 L 41.949219 182.273438 L 42.050781 182.148438 L 42.050781 180.300781 L 41.949219 180.175781 L 40.074219 180.175781 "/>
<path style=" stroke:none;fill-rule:nonzero;fill:rgb(0%,41.568627%,23.137255%);fill-opacity:1;" d="M 155.5 163.5 L 155.625 163.398438 L 155.625 161.523438 L 155.5 161.425781 L 153.625 161.425781 L 153.523438 161.523438 L 153.523438 163.398438 L 153.625 163.5 L 155.5 163.5 "/>
<path style=" stroke:none;fill-rule:nonzero;fill:rgb(0%,41.568627%,23.137255%);fill-opacity:1;" d="M 161 163.476562 L 161.101562 163.375 L 161.101562 161.5 L 161 161.398438 L 159.125 161.398438 L 159.023438 161.5 L 159.023438 163.375 L 159.125 163.476562 L 161 163.476562 "/>
<path style=" stroke:none;fill-rule:nonzero;fill:rgb(0%,41.568627%,23.137255%);fill-opacity:1;" d="M 164.199219 163.476562 L 164.324219 163.375 L 164.324219 161.5 L 164.199219 161.398438 L 162.351562 161.398438 L 162.226562 161.5 L 162.226562 163.375 L 162.351562 163.476562 L 164.199219 163.476562 "/>
<path style=" stroke:none;fill-rule:nonzero;fill:rgb(0%,41.568627%,23.137255%);fill-opacity:1;" d="M 173.425781 159.898438 L 173.324219 159.925781 L 173.226562 160.023438 L 173.226562 177.324219 C 174.898438 176.375 175.050781 174.398438 175.050781 174.398438 L 175.050781 159.601562 L 174.898438 159.5 L 173.425781 159.898438 "/>
<path style=" stroke:none;fill-rule:nonzero;fill:rgb(0%,41.568627%,23.137255%);fill-opacity:1;" d="M 169.648438 159.601562 L 169.550781 159.5 L 168.050781 159.898438 L 167.949219 159.925781 L 167.851562 160.023438 L 167.851562 174.824219 L 168.050781 175.5 L 162.574219 175.5 L 162.574219 166 L 162.476562 165.898438 L 160.898438 166.125 L 160.773438 166.25 L 160.773438 175.5 L 155.476562 175.5 L 155.476562 166 L 155.351562 165.898438 L 153.773438 166.125 L 153.675781 166.25 L 153.675781 175.5 L 148.351562 175.5 L 148.351562 172.449219 C 148.351562 169.898438 146.5 168.523438 144 168.523438 C 141.5 168.523438 139.648438 169.898438 139.648438 172.449219 L 139.648438 175.5 L 134.375 175.5 L 134.375 166 L 134.25 165.898438 L 132.675781 166.125 L 132.574219 166.25 L 132.574219 175.5 L 127.300781 175.5 L 127.300781 166.148438 L 127.175781 166.050781 L 125.699219 166.449219 C 125.449219 166.324219 125.175781 166.226562 124.925781 166.125 C 124.675781 166.023438 124.398438 165.949219 124.101562 165.875 C 123.773438 165.800781 123.476562 165.773438 123.125 165.773438 C 122.550781 165.773438 122 165.851562 121.5 166.023438 C 121 166.199219 120.574219 166.449219 120.199219 166.773438 C 119.824219 167.101562 119.550781 167.5 119.324219 168 C 119.125 168.476562 119 169.050781 119 169.675781 L 119 173.5 C 119 174.800781 119.324219 175.773438 120 176.449219 C 120.648438 177.101562 121.476562 177.449219 122.476562 177.449219 C 123.050781 177.449219 123.523438 177.375 123.898438 177.226562 C 124.273438 177.074219 124.601562 176.925781 124.824219 176.726562 C 125.050781 176.523438 125.226562 176.324219 125.351562 176.148438 C 125.476562 175.976562 125.550781 175.824219 125.601562 175.726562 L 125.5 176.699219 L 125.5 177.398438 L 139.949219 177.398438 C 140.574219 178.898438 142.101562 179.699219 144 179.699219 C 145.898438 179.699219 147.425781 178.898438 148.050781 177.398438 L 168.574219 177.398438 L 170.125 177.050781 L 170.25 176.925781 L 169.675781 174.925781 L 169.648438 159.601562 M 125.523438 175.25 C 125.425781 175.273438 125.273438 175.324219 125.074219 175.375 C 124.875 175.425781 124.648438 175.5 124.425781 175.550781 C 124.199219 175.601562 123.976562 175.648438 123.773438 175.699219 C 123.574219 175.75 123.398438 175.773438 123.273438 175.773438 C 122.949219 175.773438 122.625 175.726562 122.351562 175.648438 C 122.050781 175.550781 121.800781 175.398438 121.574219 175.199219 C 121.351562 175 121.175781 174.726562 121.050781 174.375 C 120.925781 174.023438 120.851562 173.625 120.851562 173.148438 L 120.851562 170 C 120.851562 169.125 121.074219 168.476562 121.5 168.023438 C 121.925781 167.574219 122.5 167.351562 123.199219 167.351562 C 124.75 167.351562 125.523438 168.148438 125.523438 169.726562 Z M 146.550781 175.324219 C 146.550781 177.074219 145.601562 178 144 178 C 142.375 178 141.476562 177.074219 141.476562 175.324219 L 141.476562 172.824219 C 141.476562 171.074219 142.375 170.175781 144 170.175781 C 145.601562 170.175781 146.550781 171.074219 146.550781 172.824219 Z M 146.550781 175.324219 "/>
<path style=" stroke:none;fill-rule:nonzero;fill:rgb(75.294118%,57.647059%,17.647059%);fill-opacity:1;" d="M 208.398438 70.726562 C 214.101562 71.175781 219.449219 71.726562 224.425781 72.148438 C 219.75 67.898438 212.851562 64.324219 205.226562 62.023438 C 203.273438 62.75 201.300781 63.550781 199.300781 64.398438 C 202.601562 66.25 205.648438 68.398438 208.398438 70.726562 "/>
<path style=" stroke:none;fill-rule:nonzero;fill:rgb(75.294118%,57.647059%,17.647059%);fill-opacity:1;" d="M 169.699219 62.023438 C 162.074219 64.324219 155.199219 67.898438 150.5 72.148438 C 155.425781 71.726562 160.726562 71.25 166.351562 70.851562 C 169.148438 68.449219 172.25 66.273438 175.625 64.375 C 173.601562 63.550781 171.625 62.773438 169.699219 62.023438 "/>
<path style=" stroke:none;fill-rule:nonzero;fill:rgb(98.823529%,71.372549%,8.235294%);fill-opacity:1;" d="M 178.324219 57.300781 C 171.074219 56.273438 164.273438 56.75 158.648438 58.425781 C 162.226562 59.425781 165.925781 60.625 169.675781 62.050781 C 173.101562 61.023438 176.675781 60.25 180.273438 59.800781 C 179.648438 58.925781 179 58.101562 178.324219 57.300781 "/>
<path style=" stroke:none;fill-rule:nonzero;fill:rgb(98.823529%,71.372549%,8.235294%);fill-opacity:1;" d="M 202.949219 75.476562 C 203.875 77.074219 204.726562 78.699219 205.5 80.351562 C 212.675781 85.175781 219.148438 90.351562 225.023438 95.476562 C 222.75 87.273438 217.023438 78.050781 208.398438 70.726562 C 205.476562 70.5 202.5 70.273438 199.425781 70.148438 C 200.675781 71.824219 201.851562 73.601562 202.949219 75.476562 "/>
<path style=" stroke:none;fill-rule:nonzero;fill:rgb(54.117647%,42.745098%,26.27451%);fill-opacity:1;" d="M 205.226562 62.023438 C 209 60.601562 212.675781 59.375 216.25 58.398438 C 210.648438 56.726562 203.824219 56.273438 196.574219 57.273438 C 195.925781 58.074219 195.273438 58.925781 194.625 59.773438 C 198.199219 60.226562 201.773438 61 205.226562 62.023438 "/>
<path style=" stroke:none;fill-rule:nonzero;fill:rgb(54.117647%,42.745098%,26.27451%);fill-opacity:1;" d="M 175.351562 70.324219 C 172.273438 70.476562 169.25 70.675781 166.324219 70.875 C 157.800781 78.175781 152.125 87.324219 149.875 95.476562 C 155.75 90.324219 162.226562 85.148438 169.398438 80.351562 C 170.148438 78.699219 171 77.101562 171.949219 75.476562 C 173 73.675781 174.148438 71.949219 175.351562 70.324219 "/>
<path style=" stroke:none;fill-rule:nonzero;fill:rgb(38.039216%,60.784314%,25.882353%);fill-opacity:1;" d="M 193.324219 72.949219 C 193.125 72.851562 192.925781 72.726562 192.726562 72.625 C 192.898438 74.648438 193.023438 76.675781 193.101562 78.75 C 199.375 88.875 207.75 106.125 210.476562 116.300781 C 212.023438 106.300781 211.351562 92.898438 205.5 80.300781 C 201.648438 77.75 197.601562 75.273438 193.324219 72.949219 "/>
<path style=" stroke:none;fill-rule:nonzero;fill:rgb(38.039216%,60.784314%,25.882353%);fill-opacity:1;" d="M 184.550781 56.375 C 184.550781 56.324219 184.601562 56.175781 184.625 56.050781 C 179.976562 52.925781 175.226562 50.675781 170.898438 49.449219 C 173.375 51.601562 175.875 54.300781 178.324219 57.324219 C 180.226562 57.601562 182.175781 57.976562 184.125 58.449219 C 184.273438 57.726562 184.398438 57.050781 184.550781 56.375 "/>
<path style=" stroke:none;fill-rule:nonzero;fill:rgb(38.039216%,60.784314%,25.882353%);fill-opacity:1;" d="M 190.273438 56.023438 C 190.324219 56.148438 190.351562 56.273438 190.351562 56.351562 C 190.5 57.023438 190.648438 57.726562 190.773438 58.398438 C 192.726562 57.925781 194.675781 57.550781 196.574219 57.273438 C 199.023438 54.25 201.550781 51.550781 204.023438 49.398438 C 199.675781 50.648438 194.925781 52.898438 190.273438 56.023438 "/>
<path style=" stroke:none;fill-rule:nonzero;fill:rgb(38.039216%,60.784314%,25.882353%);fill-opacity:1;" d="M 181.574219 72.949219 C 177.300781 75.273438 173.25 77.75 169.398438 80.324219 C 163.550781 92.898438 162.898438 106.324219 164.425781 116.324219 C 167.148438 106.148438 175.523438 88.875 181.800781 78.75 C 181.875 76.675781 182 74.625 182.175781 72.625 C 182 72.75 181.800781 72.851562 181.574219 72.949219 "/>
<path style=" stroke:none;fill-rule:nonzero;fill:rgb(0%,41.568627%,23.137255%);fill-opacity:1;" d="M 190.273438 56.023438 C 189.476562 52.351562 188.523438 48.898438 187.449219 45.75 C 186.375 48.925781 185.425781 52.375 184.625 56.050781 C 185.574219 56.675781 186.523438 57.351562 187.449219 58.074219 C 188.398438 57.324219 189.351562 56.648438 190.273438 56.023438 "/>
<path style=" stroke:none;fill-rule:nonzero;fill:rgb(0%,41.568627%,23.137255%);fill-opacity:1;" d="M 187.449219 69.925781 C 185.476562 72.898438 183.601562 75.898438 181.875 78.699219 L 181.824219 78.75 C 181.726562 80.726562 181.675781 82.75 181.675781 84.773438 C 181.675781 99.648438 183.851562 113.25 187.449219 123.824219 C 191.050781 113.25 193.226562 99.648438 193.226562 84.773438 C 193.226562 82.75 193.175781 80.75 193.101562 78.800781 L 193.074219 78.773438 L 193.023438 78.699219 C 191.300781 75.898438 189.425781 72.898438 187.449219 69.925781 "/>
<path style=" stroke:none;fill-rule:nonzero;fill:rgb(74.901961%,45.882353%,16.078431%);fill-opacity:1;" d="M 176.398438 63.976562 C 178.125 63.050781 179.851562 62.226562 181.574219 61.476562 C 181.148438 60.898438 180.726562 60.351562 180.300781 59.773438 C 176.699219 60.226562 173.125 61 169.699219 62.023438 C 171.648438 62.75 173.625 63.550781 175.625 64.398438 C 175.875 64.273438 176.125 64.101562 176.398438 63.976562 "/>
<path style=" stroke:none;fill-rule:nonzero;fill:rgb(74.901961%,45.882353%,16.078431%);fill-opacity:1;" d="M 195.949219 65.875 C 197.148438 67.226562 198.324219 68.648438 199.425781 70.148438 C 202.5 70.300781 205.5 70.5 208.398438 70.726562 C 205.648438 68.375 202.601562 66.25 199.300781 64.398438 C 198.175781 64.875 197.050781 65.375 195.949219 65.875 "/>
<path style=" stroke:none;fill-rule:nonzero;fill:rgb(42.745098%,27.45098%,10.588235%);fill-opacity:1;" d="M 193.351562 61.476562 C 195.074219 62.226562 196.800781 63.050781 198.523438 63.976562 C 198.773438 64.125 199.023438 64.273438 199.300781 64.425781 C 201.300781 63.574219 203.273438 62.800781 205.226562 62.050781 C 201.800781 61.023438 198.226562 60.25 194.625 59.800781 C 194.175781 60.351562 193.75 60.898438 193.351562 61.476562 "/>
<path style=" stroke:none;fill-rule:nonzero;fill:rgb(42.745098%,27.45098%,10.588235%);fill-opacity:1;" d="M 178.976562 65.875 C 177.851562 65.375 176.75 64.875 175.625 64.425781 C 172.25 66.300781 169.148438 68.5 166.351562 70.898438 C 169.273438 70.699219 172.273438 70.5 175.375 70.351562 C 176.5 68.75 177.699219 67.273438 178.976562 65.875 "/>
<path style=" stroke:none;fill-rule:nonzero;fill:rgb(41.568627%,20.784314%,8.235294%);fill-opacity:1;" d="M 182.300781 62.449219 C 182.050781 62.125 181.824219 61.800781 181.574219 61.476562 C 179.851562 62.226562 178.125 63.050781 176.398438 63.976562 C 176.148438 64.125 175.898438 64.273438 175.625 64.425781 C 176.726562 64.898438 177.851562 65.375 178.976562 65.875 C 180.023438 64.675781 181.148438 63.523438 182.300781 62.449219 "/>
<path style=" stroke:none;fill-rule:nonzero;fill:rgb(41.568627%,20.784314%,8.235294%);fill-opacity:1;" d="M 195.949219 65.875 C 197.074219 65.375 198.175781 64.875 199.300781 64.425781 C 199.050781 64.273438 198.800781 64.125 198.523438 63.976562 C 196.800781 63.050781 195.074219 62.226562 193.351562 61.476562 C 193.101562 61.800781 192.875 62.125 192.625 62.449219 C 193.75 63.523438 194.875 64.675781 195.949219 65.875 "/>
<path style=" stroke:none;fill-rule:nonzero;fill:rgb(36.078431%,44.705882%,20%);fill-opacity:1;" d="M 183.949219 59.449219 C 184 59.101562 184.074219 58.773438 184.148438 58.425781 C 182.199219 57.949219 180.25 57.574219 178.351562 57.300781 C 179.023438 58.101562 179.648438 58.949219 180.324219 59.800781 C 181.5 59.625 182.726562 59.523438 183.949219 59.449219 "/>
<path style=" stroke:none;fill-rule:nonzero;fill:rgb(36.078431%,44.705882%,20%);fill-opacity:1;" d="M 199.425781 70.148438 C 197.148438 70.050781 194.824219 69.949219 192.476562 69.925781 C 192.550781 70.824219 192.648438 71.726562 192.726562 72.648438 C 192.925781 72.75 193.125 72.875 193.324219 72.976562 C 197.601562 75.300781 201.648438 77.773438 205.5 80.351562 C 204.75 78.699219 203.898438 77.074219 202.949219 75.476562 C 201.875 73.601562 200.675781 71.824219 199.425781 70.148438 "/>
<path style=" stroke:none;fill-rule:nonzero;fill:rgb(32.941176%,30.980392%,12.941176%);fill-opacity:1;" d="M 192.476562 69.925781 C 194.824219 69.949219 197.148438 70.050781 199.425781 70.148438 C 198.324219 68.648438 197.148438 67.226562 195.949219 65.875 C 194.726562 66.425781 193.476562 67 192.226562 67.601562 C 192.300781 68.351562 192.398438 69.125 192.476562 69.925781 "/>
<path style=" stroke:none;fill-rule:nonzero;fill:rgb(32.941176%,30.980392%,12.941176%);fill-opacity:1;" d="M 183.949219 59.449219 C 182.726562 59.523438 181.523438 59.648438 180.300781 59.800781 C 180.726562 60.351562 181.148438 60.925781 181.574219 61.5 C 182.300781 61.199219 183 60.925781 183.726562 60.648438 C 183.800781 60.226562 183.851562 59.824219 183.949219 59.449219 "/>
<path style=" stroke:none;fill-rule:nonzero;fill:rgb(18.823529%,16.862745%,7.45098%);fill-opacity:1;" d="M 183.625 61.226562 C 183.648438 61.023438 183.699219 60.824219 183.726562 60.625 C 183 60.898438 182.300781 61.175781 181.574219 61.476562 C 181.824219 61.800781 182.050781 62.125 182.300781 62.449219 C 182.726562 62.023438 183.175781 61.625 183.625 61.226562 "/>
<path style=" stroke:none;fill-rule:nonzero;fill:rgb(18.823529%,16.862745%,7.45098%);fill-opacity:1;" d="M 192.625 62.449219 C 192.324219 62.875 192 63.300781 191.699219 63.726562 C 191.898438 65 192.074219 66.273438 192.226562 67.574219 C 193.476562 66.976562 194.726562 66.398438 195.949219 65.851562 C 194.875 64.675781 193.75 63.523438 192.625 62.449219 "/>
<path style=" stroke:none;fill-rule:nonzero;fill:rgb(23.137255%,30.588235%,14.901961%);fill-opacity:1;" d="M 182.199219 72.625 C 182.273438 71.75 182.351562 70.875 182.449219 70.023438 C 180.050781 70.101562 177.699219 70.199219 175.375 70.324219 C 174.175781 71.976562 173.023438 73.675781 171.976562 75.476562 C 171.023438 77.074219 170.199219 78.699219 169.425781 80.351562 C 173.273438 77.773438 177.324219 75.300781 181.601562 72.976562 C 181.800781 72.851562 182 72.75 182.199219 72.625 "/>
<path style=" stroke:none;fill-rule:nonzero;fill:rgb(23.137255%,30.588235%,14.901961%);fill-opacity:1;" d="M 190.976562 59.449219 C 192.199219 59.523438 193.398438 59.648438 194.601562 59.800781 C 195.25 58.949219 195.898438 58.125 196.550781 57.300781 C 194.648438 57.574219 192.726562 57.949219 190.75 58.425781 C 190.851562 58.75 190.898438 59.101562 190.976562 59.449219 "/>
<path style=" stroke:none;fill-rule:nonzero;fill:rgb(18.823529%,20.784314%,10.588235%);fill-opacity:1;" d="M 178.976562 65.875 C 177.699219 67.273438 176.5 68.773438 175.351562 70.324219 C 177.675781 70.199219 180.023438 70.101562 182.425781 70.023438 C 182.5 69.199219 182.601562 68.398438 182.699219 67.574219 C 181.449219 67 180.199219 66.425781 178.976562 65.875 "/>
<path style=" stroke:none;fill-rule:nonzero;fill:rgb(18.823529%,20.784314%,10.588235%);fill-opacity:1;" d="M 193.351562 61.476562 C 193.773438 60.898438 194.199219 60.351562 194.625 59.773438 C 193.398438 59.625 192.199219 59.5 191 59.425781 C 191.074219 59.824219 191.148438 60.199219 191.199219 60.601562 C 191.898438 60.898438 192.625 61.175781 193.351562 61.476562 "/>
<path style=" stroke:none;fill-rule:nonzero;fill:rgb(18.823529%,15.686275%,7.843137%);fill-opacity:1;" d="M 191.300781 61.226562 C 191.75 61.625 192.199219 62.023438 192.625 62.449219 C 192.875 62.125 193.101562 61.800781 193.351562 61.476562 C 192.625 61.175781 191.898438 60.898438 191.199219 60.625 C 191.226562 60.824219 191.25 61.023438 191.300781 61.226562 "/>
<path style=" stroke:none;fill-rule:nonzero;fill:rgb(18.823529%,15.686275%,7.843137%);fill-opacity:1;" d="M 183.226562 63.75 C 182.925781 63.324219 182.601562 62.875 182.300781 62.449219 C 181.148438 63.523438 180.050781 64.675781 178.976562 65.875 C 180.199219 66.425781 181.449219 67 182.726562 67.601562 C 182.851562 66.300781 183.023438 65 183.226562 63.75 "/>
<path style=" stroke:none;fill-rule:nonzero;fill:rgb(8.627451%,13.333333%,7.45098%);fill-opacity:1;" d="M 192.625 62.449219 C 192.199219 62.023438 191.75 61.625 191.300781 61.226562 C 191.449219 62.050781 191.574219 62.875 191.699219 63.726562 C 192 63.300781 192.300781 62.875 192.625 62.449219 "/>
<path style=" stroke:none;fill-rule:nonzero;fill:rgb(8.627451%,13.333333%,7.45098%);fill-opacity:1;" d="M 182.300781 62.449219 C 182.601562 62.875 182.925781 63.300781 183.226562 63.75 C 183.351562 62.898438 183.476562 62.050781 183.625 61.226562 C 183.175781 61.625 182.726562 62.023438 182.300781 62.449219 "/>
<path style=" stroke:none;fill-rule:nonzero;fill:rgb(0.392157%,32.941176%,17.254902%);fill-opacity:1;" d="M 184.625 56.023438 C 184.574219 56.175781 184.550781 56.300781 184.550781 56.351562 C 184.398438 57.023438 184.273438 57.726562 184.125 58.398438 C 184.824219 58.574219 185.550781 58.773438 186.25 58.976562 C 186.648438 58.648438 187.050781 58.351562 187.425781 58.050781 C 186.5 57.324219 185.574219 56.648438 184.625 56.023438 "/>
<path style=" stroke:none;fill-rule:nonzero;fill:rgb(0.392157%,32.941176%,17.254902%);fill-opacity:1;" d="M 187.476562 69.925781 C 189.425781 72.925781 191.300781 75.898438 193.050781 78.699219 L 193.101562 78.773438 C 193.023438 76.699219 192.898438 74.648438 192.726562 72.648438 C 190.949219 71.699219 189.199219 70.800781 187.476562 69.925781 "/>
<path style=" stroke:none;fill-rule:nonzero;fill:rgb(2.352941%,26.27451%,12.941176%);fill-opacity:1;" d="M 186.25 58.976562 C 185.550781 58.773438 184.824219 58.574219 184.125 58.398438 C 184.050781 58.75 184 59.074219 183.925781 59.425781 C 184.550781 59.375 185.148438 59.351562 185.773438 59.351562 C 185.949219 59.226562 186.101562 59.101562 186.25 58.976562 "/>
<path style=" stroke:none;fill-rule:nonzero;fill:rgb(2.352941%,26.27451%,12.941176%);fill-opacity:1;" d="M 187.476562 69.925781 C 189.199219 70.800781 190.949219 71.699219 192.726562 72.648438 C 192.648438 71.726562 192.574219 70.824219 192.476562 69.925781 C 190.824219 69.898438 189.148438 69.898438 187.476562 69.925781 "/>
<path style=" stroke:none;fill-rule:nonzero;fill:rgb(5.490196%,16.862745%,9.019608%);fill-opacity:1;" d="M 184.726562 60.25 C 185.074219 59.949219 185.449219 59.648438 185.800781 59.375 C 185.175781 59.398438 184.574219 59.425781 183.949219 59.449219 C 183.875 59.851562 183.800781 60.226562 183.726562 60.625 C 184.050781 60.5 184.398438 60.351562 184.726562 60.25 "/>
<path style=" stroke:none;fill-rule:nonzero;fill:rgb(4.313725%,17.254902%,9.803922%);fill-opacity:1;" d="M 192.476562 69.925781 C 192.398438 69.148438 192.300781 68.375 192.226562 67.601562 C 190.648438 68.351562 189.074219 69.101562 187.476562 69.925781 L 187.476562 69.949219 C 189.148438 69.898438 190.824219 69.898438 192.476562 69.925781 "/>
<path style=" stroke:none;fill-rule:nonzero;fill:rgb(4.705882%,10.980392%,5.882353%);fill-opacity:1;" d="M 183.726562 60.625 C 183.675781 60.824219 183.648438 61.023438 183.625 61.226562 C 184 60.898438 184.351562 60.550781 184.726562 60.25 C 184.398438 60.351562 184.050781 60.5 183.726562 60.625 "/>
<path style=" stroke:none;fill-rule:nonzero;fill:rgb(3.921569%,11.372549%,6.666667%);fill-opacity:1;" d="M 187.476562 69.898438 C 189.074219 69.101562 190.648438 68.324219 192.226562 67.574219 C 192.074219 66.273438 191.898438 64.976562 191.699219 63.726562 C 190.25 65.75 188.824219 67.824219 187.476562 69.898438 "/>
<path style=" stroke:none;fill-rule:nonzero;fill:rgb(0.392157%,32.941176%,17.254902%);fill-opacity:1;" d="M 187.449219 69.925781 C 185.699219 70.800781 183.949219 71.699219 182.199219 72.625 C 182.023438 74.625 181.898438 76.675781 181.824219 78.75 L 181.875 78.699219 C 183.601562 75.898438 185.476562 72.898438 187.449219 69.925781 "/>
<path style=" stroke:none;fill-rule:nonzero;fill:rgb(0.392157%,32.941176%,17.254902%);fill-opacity:1;" d="M 188.648438 58.976562 C 189.375 58.773438 190.074219 58.574219 190.773438 58.398438 C 190.648438 57.699219 190.5 57.023438 190.351562 56.351562 C 190.324219 56.273438 190.300781 56.148438 190.273438 56.023438 C 189.324219 56.675781 188.398438 57.324219 187.449219 58.050781 C 187.851562 58.351562 188.25 58.648438 188.648438 58.976562 "/>
<path style=" stroke:none;fill-rule:nonzero;fill:rgb(5.098039%,17.647059%,9.803922%);fill-opacity:1;" d="M 182.199219 72.625 C 183.976562 71.675781 185.699219 70.773438 187.449219 69.898438 C 185.773438 69.925781 184.101562 69.976562 182.449219 70.023438 C 182.351562 70.898438 182.273438 71.75 182.199219 72.625 "/>
<path style=" stroke:none;fill-rule:nonzero;fill:rgb(5.098039%,17.647059%,9.803922%);fill-opacity:1;" d="M 190.976562 59.449219 C 190.898438 59.101562 190.851562 58.75 190.773438 58.425781 C 190.074219 58.601562 189.351562 58.773438 188.648438 59 C 188.800781 59.125 188.949219 59.25 189.125 59.375 C 189.726562 59.375 190.351562 59.398438 190.976562 59.449219 "/>
<path style=" stroke:none;fill-rule:nonzero;fill:rgb(5.098039%,12.156863%,7.058824%);fill-opacity:1;" d="M 190.175781 60.25 C 190.5 60.375 190.851562 60.5 191.199219 60.625 C 191.125 60.226562 191.050781 59.851562 190.976562 59.449219 C 190.351562 59.398438 189.726562 59.375 189.101562 59.351562 C 189.476562 59.648438 189.824219 59.925781 190.175781 60.25 "/>
<path style=" stroke:none;fill-rule:nonzero;fill:rgb(4.313725%,12.156863%,7.058824%);fill-opacity:1;" d="M 187.449219 69.898438 C 185.851562 69.101562 184.273438 68.324219 182.726562 67.601562 C 182.625 68.398438 182.523438 69.226562 182.449219 70.050781 C 184.074219 69.976562 185.75 69.949219 187.449219 69.898438 "/>
<path style=" stroke:none;fill-rule:nonzero;fill:rgb(4.705882%,9.803922%,5.882353%);fill-opacity:1;" d="M 182.699219 67.601562 C 184.273438 68.351562 185.851562 69.101562 187.425781 69.898438 C 186.050781 67.824219 184.648438 65.75 183.199219 63.75 C 183.023438 65 182.851562 66.300781 182.699219 67.601562 "/>
<path style=" stroke:none;fill-rule:nonzero;fill:rgb(5.490196%,9.803922%,5.490196%);fill-opacity:1;" d="M 191.199219 60.625 C 190.875 60.5 190.523438 60.375 190.175781 60.25 C 190.550781 60.574219 190.925781 60.898438 191.300781 61.25 C 191.25 61.023438 191.226562 60.824219 191.199219 60.625 "/>
<path style=" stroke:none;fill-rule:nonzero;fill:rgb(3.529412%,27.843137%,13.333333%);fill-opacity:1;" d="M 187.449219 59.324219 L 187.5 59.324219 C 187.875 59.199219 188.273438 59.101562 188.648438 59 C 188.25 58.675781 187.851562 58.375 187.449219 58.074219 C 187.050781 58.375 186.648438 58.699219 186.273438 59 C 186.648438 59.101562 187.050781 59.226562 187.425781 59.324219 L 187.449219 59.324219 "/>
<path style=" stroke:none;fill-rule:nonzero;fill:rgb(4.705882%,19.215686%,10.588235%);fill-opacity:1;" d="M 187.425781 59.324219 C 187.050781 59.199219 186.648438 59.101562 186.273438 59 C 186.101562 59.125 185.949219 59.25 185.800781 59.375 C 186.351562 59.351562 186.875 59.324219 187.425781 59.324219 "/>
<path style=" stroke:none;fill-rule:nonzero;fill:rgb(5.490196%,12.941176%,7.45098%);fill-opacity:1;" d="M 187.425781 59.324219 C 186.875 59.324219 186.351562 59.351562 185.800781 59.375 C 185.449219 59.675781 185.074219 59.949219 184.726562 60.25 C 185.648438 59.925781 186.550781 59.625 187.449219 59.324219 L 187.425781 59.324219 "/>
<path style=" stroke:none;fill-rule:nonzero;fill:rgb(7.058824%,13.72549%,7.843137%);fill-opacity:1;" d="M 189.101562 59.351562 C 188.949219 59.226562 188.800781 59.101562 188.625 58.976562 C 188.25 59.074219 187.851562 59.199219 187.476562 59.300781 C 188.023438 59.324219 188.574219 59.351562 189.101562 59.351562 "/>
<path style=" stroke:none;fill-rule:nonzero;fill:rgb(5.490196%,10.588235%,5.882353%);fill-opacity:1;" d="M 190.175781 60.25 C 189.824219 59.949219 189.476562 59.648438 189.101562 59.375 C 188.550781 59.351562 188.023438 59.324219 187.476562 59.324219 L 187.425781 59.324219 C 188.375 59.601562 189.273438 59.898438 190.175781 60.25 "/>
<path style=" stroke:none;fill-rule:nonzero;fill:rgb(3.529412%,5.490196%,3.921569%);fill-opacity:1;" d="M 191.300781 61.226562 C 190.925781 60.898438 190.550781 60.550781 190.175781 60.226562 C 189.273438 59.898438 188.375 59.574219 187.449219 59.300781 C 186.550781 59.574219 185.625 59.898438 184.726562 60.226562 C 184.351562 60.550781 184 60.875 183.625 61.199219 C 183.476562 62.023438 183.351562 62.875 183.226562 63.726562 C 184.675781 65.75 186.074219 67.824219 187.449219 69.875 L 187.476562 69.875 C 188.851562 67.800781 190.25 65.726562 191.699219 63.699219 C 191.574219 62.898438 191.449219 62.050781 191.300781 61.226562 "/>
</g>
</svg>
